# Blender v3.1.2 OBJ File: 'basictile.blend'
# www.blender.org
mtllib endtile.mtl
o Tile
v 1.399290 0.594997 -1.761019
v -2.079032 0.594997 -1.761019
v -2.079032 0.594997 1.801004
v 1.399290 0.594997 1.801004
v -2.079032 0.000000 -1.761019
v -2.174979 0.000000 -1.761019
v -2.174979 0.000000 -1.875598
v -2.079032 0.000000 -1.875598
v 1.513974 0.594997 1.918025
v 1.513974 0.594997 1.801004
v 1.513974 0.594997 1.801004
v 1.513974 0.594997 1.918025
v 1.513974 -0.000000 1.801004
v 1.513974 -0.000000 1.918025
v -2.174979 0.594997 -1.875598
v -2.079032 0.594997 -1.875598
v -2.079032 0.594997 1.918025
v -2.174979 0.594997 1.918025
v -2.174979 -0.000000 1.918025
v -2.079032 -0.000000 1.918025
v 1.399290 0.594997 -1.761019
v 1.399290 0.594997 1.801004
v 1.399290 0.594997 1.801004
v 1.399290 0.594997 -1.761019
v -2.174979 0.594997 -1.761019
v -2.174979 -0.000000 1.801004
v -2.079032 -0.000000 1.801004
v -2.174979 0.594997 1.801004
v 1.513974 0.000000 -1.761019
v 1.513974 0.594997 -1.761019
v -2.079032 0.594997 1.801004
v -2.079032 0.594997 1.801004
v 1.399290 0.594997 1.801004
v 1.399290 -0.000000 1.918025
v 1.399290 -0.000000 1.801004
v 1.399290 0.594997 1.918025
v 1.513974 0.000000 -1.875598
v 1.399290 0.000000 -1.875598
v 1.399290 0.594997 -1.875598
v 1.513974 0.594997 -1.875598
v 1.399290 0.594997 -1.875598
v 1.513974 0.594997 -1.875598
v 1.399290 0.000000 -1.761019
v -2.079032 0.594997 -1.875598
v -2.174979 0.594997 -1.761019
v -2.174979 0.594997 -1.875598
v -2.079032 0.594997 1.801004
v -2.079032 0.594997 -1.761019
v -2.079032 0.594997 -1.761019
v -2.079032 0.594997 1.918025
v -2.079032 0.594997 1.918025
v 1.399290 0.594997 1.918025
v 1.513974 0.594997 1.918025
v 1.399290 0.594997 1.918025
v -2.174979 0.594997 1.801004
v -2.174979 0.594997 1.801004
v -2.174979 0.594997 -1.761019
v -2.174979 0.594997 -1.875598
v -2.079032 0.594997 -1.875598
v 1.513974 0.594997 -1.761019
v 1.513974 0.594997 -1.875598
v 1.513974 0.594997 -1.761019
v -2.174979 0.594997 1.918025
v -2.079032 0.594997 1.918025
v -2.079032 0.684366 1.918025
v -2.174979 0.684366 1.918025
v -2.174979 0.684366 -1.875598
v -2.079032 0.684366 -1.875598
v 1.513974 0.684366 -1.875598
v 1.513974 0.684366 -1.761019
v -2.174979 0.594997 1.801004
v -2.174979 0.684366 1.801004
v -2.079032 0.684366 1.801004
v -2.174979 0.684366 -1.761019
v 1.399290 0.594997 -1.761019
v 1.399290 0.684366 1.801004
v 1.399290 0.684366 -1.761019
v -2.079032 0.684366 1.801004
v -2.174979 0.684366 1.801004
v 1.513974 0.594997 1.801004
v 1.513974 0.684366 1.801004
v 1.513974 0.684366 1.918025
v -2.079032 0.594997 -1.761019
v 1.399290 0.594997 -1.875598
v -2.079032 0.684366 -1.761019
v 1.399290 0.684366 1.918025
v 1.399290 0.684366 -1.875598
v -2.079032 0.684366 1.918025
vt 0.501866 0.504773
vt 0.748466 0.504773
vt 0.748466 0.750340
vt 0.501866 0.750340
vt 0.131502 0.507551
vt 0.125000 0.507551
vt 0.125000 0.500000
vt 0.131502 0.500000
vt 0.625000 0.750000
vt 0.625000 0.742288
vt 0.625000 0.742288
vt 0.625000 0.750000
vt 0.375000 0.742288
vt 0.375000 0.750000
vt 0.375000 0.256502
vt 0.375000 0.250000
vt 0.625000 0.250000
vt 0.625000 0.256502
vt 0.625000 0.993498
vt 0.625000 1.000000
vt 0.375000 1.000000
vt 0.375000 0.993498
vt 0.632772 0.507551
vt 0.632772 0.742288
vt 0.632772 0.742288
vt 0.632772 0.507551
vt 0.375000 0.242449
vt 0.625000 0.242449
vt 0.131502 0.750000
vt 0.125000 0.750000
vt 0.125000 0.742288
vt 0.131502 0.742288
vt 0.375000 0.000000
vt 0.625000 0.000000
vt 0.625000 0.007712
vt 0.375000 0.007712
vt 0.298183 0.368071
vt 0.606463 0.368071
vt 0.606463 0.657531
vt 0.298183 0.657531
vt 0.868498 0.742288
vt 0.868498 0.742288
vt 0.632772 0.742288
vt 0.367228 0.750000
vt 0.367228 0.742288
vt 0.625000 0.757772
vt 0.375000 0.757772
vt 0.375000 0.500000
vt 0.375000 0.492228
vt 0.625000 0.492228
vt 0.625000 0.500000
vt 0.625000 0.492228
vt 0.625000 0.500000
vt 0.375000 0.507551
vt 0.367228 0.507551
vt 0.367228 0.500000
vt 0.625000 0.256502
vt 0.625000 0.507551
vt 0.625000 0.242449
vt 0.625000 0.250000
vt 0.868498 0.742288
vt 0.868498 0.507551
vt 0.868498 0.507551
vt 0.868498 0.742288
vt 0.868498 0.507551
vt 0.632772 0.742288
vt 0.868498 0.750000
vt 0.868498 0.750000
vt 0.625000 0.757772
vt 0.625000 0.750000
vt 0.625000 0.757772
vt 0.625000 0.007712
vt 0.625000 0.007712
vt 0.625000 0.242449
vt 0.632772 0.507551
vt 0.625000 0.250000
vt 0.625000 0.256502
vt 0.625000 0.507551
vt 0.625000 0.500000
vt 0.625000 0.507551
vt 0.625000 0.993498
vt 0.868498 0.750000
vt 0.875000 0.742288
vt 0.875000 0.742288
vt 0.625000 1.000000
vt 0.625000 0.993498
vt 0.625000 0.993498
vt 0.625000 1.000000
vt 0.625000 0.250000
vt 0.625000 0.256502
vt 0.625000 0.500000
vt 0.625000 0.507551
vt 0.875000 0.742288
vt 0.875000 0.742288
vt 0.868498 0.742288
vt 0.625000 0.242449
vt 0.632772 0.507551
vt 0.632772 0.742288
vt 0.632772 0.507551
vt 0.875000 0.742288
vt 0.868498 0.742288
vt 0.875000 0.742288
vt 0.625000 0.742288
vt 0.625000 0.742288
vt 0.625000 0.750000
vt 0.868498 0.507551
vt 0.625000 0.492228
vt 0.625000 0.993498
vt 0.868498 0.750000
vt 0.625000 0.000000
vt 0.625000 0.007712
vt 0.927197 0.780361
vt 0.935215 0.780361
vt 0.935215 0.789870
vt 0.927197 0.789870
vt 0.927197 0.490901
vt 0.935215 0.490901
vt 0.935215 0.780361
vt 0.927197 0.780361
vt 0.626935 0.780361
vt 0.636519 0.780361
vt 0.636519 0.789870
vt 0.626935 0.789870
vt 0.626935 0.490901
vt 0.636519 0.490901
vt 0.626935 0.481590
vt 0.636519 0.481590
vt 0.927197 0.481590
vt 0.935215 0.481590
vt 0.927197 0.789870
vt 0.625000 0.007712
vt 0.625000 0.757772
vt 0.868498 0.750000
vt 0.868498 0.750000
vt 0.868498 0.507551
vt 0.625000 0.000000
vt 0.625000 0.007712
vt 0.625000 0.492228
vt 0.625000 0.993498
vn 0.0000 1.0000 -0.0000
vn -0.0001 1.0000 -0.0000
vn 0.0000 0.2000 0.4000
vn 0.0000 -1.0000 -0.0000
vn 0.0000 0.0000 0.0000
vn 1.0000 0.0000 0.0000
vn 0.0000 0.0000 -1.0000
vn 0.0000 -0.0000 1.0000
vn 0.0000 0.0000 -0.0001
vn -1.0000 0.0000 0.0000
usemtl Inner_Tile
s 1
f 1/1/1 2/2/2 3/3/3 4/4/1
usemtl Border
f 5/5/4 6/6/4 7/7/4 8/8/4
f 9/9/5 10/10/5 11/11/5 12/12/5
f 13/13/6 10/10/6 9/9/6 14/14/6
f 8/15/7 7/16/7 15/17/7 16/18/7
f 17/19/8 18/20/8 19/21/8 20/22/8
f 21/23/5 22/24/5 23/25/5 24/26/9
f 6/27/10 25/28/10 15/17/10 7/16/10
f 20/29/4 19/30/4 26/31/4 27/32/4
f 19/33/10 18/34/10 28/35/10 26/36/10
f 29/37/6 30/38/6 10/39/6 13/40/6
f 23/25/5 31/41/5 32/42/1 33/43/5
f 14/14/4 34/44/4 35/45/4 13/13/4
f 9/9/8 36/46/8 34/47/8 14/14/8
f 37/48/7 38/49/7 39/50/7 40/51/7
f 40/51/5 39/50/1 41/52/1 42/53/9
f 29/54/4 43/55/4 38/56/4 37/48/4
f 13/13/4 35/45/4 43/55/4 29/54/4
f 39/50/1 16/18/1 44/57/1 41/52/1
f 37/48/6 40/51/6 30/58/6 29/54/6
f 26/36/10 28/35/10 25/28/10 6/27/10
f 15/17/5 25/28/5 45/59/5 46/60/9
f 27/32/4 26/31/4 6/6/4 5/5/4
f 35/45/4 27/32/4 5/5/4 43/55/4
f 22/24/5 47/61/5 31/41/5 23/25/5
f 47/61/5 48/62/9 49/63/5 31/41/5
f 34/44/4 20/29/4 27/32/4 35/45/4
f 36/46/8 17/19/8 20/22/8 34/47/8
f 38/49/7 8/15/7 16/18/7 39/50/7
f 48/62/9 47/61/5 3/64/3 2/65/2
f 43/55/4 5/5/4 8/8/4 38/56/4
f 47/61/5 22/24/5 4/66/1 3/64/3
f 31/41/5 50/67/5 51/68/5 32/42/5
f 52/69/1 12/12/5 53/70/5 54/71/1
f 45/59/5 55/72/5 56/73/5 57/74/5
f 21/23/5 48/62/9 2/65/2 1/75/1
f 44/57/1 46/60/9 58/76/5 59/77/1
f 60/78/5 42/53/9 61/79/5 62/80/5
f 17/19/1 36/46/1 52/69/1 50/81/5
f 16/18/1 15/17/5 46/60/9 44/57/1
f 47/61/5 17/82/1 50/67/5 31/41/5
f 36/46/1 9/9/5 12/12/5 52/69/1
f 30/58/5 40/51/5 42/53/9 60/78/5
f 28/83/5 47/61/5 31/41/5 55/84/5
f 10/10/5 30/58/5 60/78/5 11/11/5
f 48/62/9 21/23/5 24/26/9 49/63/5
f 25/28/5 28/35/5 55/72/5 45/59/5
f 63/85/8 64/86/8 65/87/8 66/88/8
f 59/77/7 58/76/7 67/89/7 68/90/7
f 62/80/6 61/79/6 69/91/6 70/92/6
f 3/64/7 71/93/7 72/94/7 73/95/7
f 58/76/10 57/74/10 74/96/10 67/89/10
f 75/97/10 33/43/10 76/98/10 77/99/10
f 56/100/8 32/42/8 78/101/8 79/102/8
f 53/70/6 80/103/6 81/104/6 82/105/6
f 31/41/5 49/63/5 83/106/5 32/42/5
f 42/53/9 41/52/1 84/107/1 61/79/5
f 22/24/5 21/23/5 1/75/1 4/66/1
f 49/63/5 24/26/9 75/97/5 83/106/5
f 50/81/5 52/69/1 54/71/1 51/108/5
f 11/11/5 60/78/5 62/80/5 80/103/5
f 41/52/1 44/57/1 59/77/1 84/107/1
f 17/82/1 47/61/5 3/64/5 64/109/5
f 28/35/5 18/34/5 63/110/5 71/111/5
f 47/61/5 28/83/5 71/93/5 3/64/5
f 12/12/5 11/11/5 80/103/5 53/70/5
f 55/84/5 31/41/5 32/42/1 56/100/5
f 24/26/9 23/25/5 33/43/5 75/97/5
f 18/20/5 17/19/1 64/86/5 63/85/5
f 46/60/9 45/59/5 57/74/5 58/76/5
f 73/112/1 72/113/1 66/114/1 65/115/1
f 85/116/1 74/117/1 79/118/1 78/119/1
f 81/120/1 76/121/1 86/122/1 82/123/1
f 70/124/1 77/125/1 76/121/1 81/120/1
f 69/126/1 87/127/1 77/125/1 70/124/1
f 68/128/1 67/129/1 74/117/1 85/116/1
f 87/127/1 68/128/1 85/116/1 77/125/1
f 76/121/1 78/119/1 88/130/1 86/122/1
f 57/74/10 56/73/10 79/131/10 74/96/10
f 54/71/8 53/70/8 82/105/8 86/132/8
f 32/42/10 51/68/10 88/133/10 78/101/10
f 64/109/6 3/64/6 73/95/6 65/134/6
f 33/43/7 32/42/7 78/101/7 76/98/7
f 32/42/6 83/106/6 85/135/6 78/101/6
f 71/111/10 63/110/10 66/136/10 72/137/10
f 61/79/7 84/107/7 87/138/7 69/91/7
f 83/106/8 75/97/8 77/99/8 85/135/8
f 51/108/8 54/71/8 86/132/8 88/139/8
f 80/103/6 62/80/6 70/92/6 81/104/6
f 84/107/7 59/77/7 68/90/7 87/138/7
o End_Text
v 0.337971 0.615007 -0.409964
v 0.248971 0.615007 -0.409964
v 0.248971 0.615007 -0.167964
v 0.240131 0.615007 -0.171049
v 0.231591 0.615007 -0.173811
v 0.223314 0.615007 -0.176261
v 0.215267 0.615007 -0.178408
v 0.207414 0.615007 -0.180264
v 0.199721 0.615007 -0.181839
v 0.192152 0.615007 -0.183143
v 0.184674 0.615007 -0.184186
v 0.177252 0.615007 -0.184980
v 0.169850 0.615007 -0.185533
v 0.162435 0.615007 -0.185858
v 0.154971 0.615007 -0.185964
v 0.123044 0.615007 -0.184059
v 0.092892 0.615007 -0.178473
v 0.064705 0.615007 -0.169402
v 0.038674 0.615007 -0.157038
v 0.014991 0.615007 -0.141577
v -0.006154 0.615007 -0.123214
v -0.024570 0.615007 -0.102142
v -0.040066 0.615007 -0.078557
v -0.052451 0.615007 -0.052651
v -0.061534 0.615007 -0.024621
v -0.067124 0.615007 0.005339
v -0.069029 0.615007 0.037036
v -0.067299 0.615007 0.071910
v -0.062187 0.615007 0.104443
v -0.053811 0.615007 0.134505
v -0.042289 0.615007 0.161962
v -0.027739 0.615007 0.186683
v -0.010279 0.615007 0.208536
v 0.009972 0.615007 0.227389
v 0.032897 0.615007 0.243110
v 0.058377 0.615007 0.255567
v 0.086295 0.615007 0.264629
v 0.116532 0.615007 0.270162
v 0.148971 0.615007 0.272036
v 0.337971 0.615007 0.272036
v 0.248971 0.615007 0.197036
v 0.158971 0.615007 0.197036
v 0.134638 0.615007 0.195748
v 0.113059 0.615007 0.191980
v 0.094111 0.615007 0.185880
v 0.077674 0.615007 0.177592
v 0.063626 0.615007 0.167262
v 0.051846 0.615007 0.155036
v 0.042211 0.615007 0.141060
v 0.034600 0.615007 0.125480
v 0.028893 0.615007 0.108442
v 0.024966 0.615007 0.090092
v 0.022699 0.615007 0.070574
v 0.021971 0.615007 0.050036
v 0.023162 0.615007 0.027220
v 0.026665 0.615007 0.005842
v 0.032377 0.615007 -0.013995
v 0.040193 0.615007 -0.032186
v 0.050009 0.615007 -0.048627
v 0.061721 0.615007 -0.063214
v 0.075224 0.615007 -0.075842
v 0.090415 0.615007 -0.086408
v 0.107189 0.615007 -0.094808
v 0.125443 0.615007 -0.100936
v 0.145071 0.615007 -0.104690
v 0.165971 0.615007 -0.105964
v 0.173333 0.615007 -0.105859
v 0.180452 0.615007 -0.105538
v 0.187377 0.615007 -0.104995
v 0.194156 0.615007 -0.104223
v 0.200837 0.615007 -0.103215
v 0.207471 0.615007 -0.101964
v 0.214104 0.615007 -0.100463
v 0.220785 0.615007 -0.098705
v 0.227564 0.615007 -0.096683
v 0.234489 0.615007 -0.094390
v 0.241608 0.615007 -0.091819
v 0.248971 0.615007 -0.088964
v -0.463029 0.615007 -0.176964
v -0.552029 0.615007 -0.176964
v -0.552029 0.615007 0.272036
v -0.463029 0.615007 0.272036
v -0.463029 0.615007 -0.049964
v -0.452748 0.615007 -0.061116
v -0.442858 0.615007 -0.071098
v -0.433295 0.615007 -0.079948
v -0.423992 0.615007 -0.087705
v -0.414884 0.615007 -0.094406
v -0.405904 0.615007 -0.100089
v -0.396987 0.615007 -0.104793
v -0.388066 0.615007 -0.108557
v -0.379076 0.615007 -0.111417
v -0.369951 0.615007 -0.113413
v -0.360624 0.615007 -0.114583
v -0.351029 0.615007 -0.114964
v -0.337954 0.615007 -0.114080
v -0.325761 0.615007 -0.111473
v -0.314498 0.615007 -0.107214
v -0.304215 0.615007 -0.101371
v -0.294959 0.615007 -0.094015
v -0.286779 0.615007 -0.085214
v -0.279725 0.615007 -0.075038
v -0.273844 0.615007 -0.063557
v -0.269186 0.615007 -0.050839
v -0.265798 0.615007 -0.036955
v -0.263730 0.615007 -0.021973
v -0.263029 0.615007 -0.005964
v -0.263029 0.615007 0.272036
v -0.174029 0.615007 0.272036
v -0.174029 0.615007 -0.004964
v -0.175417 0.615007 -0.034364
v -0.179460 0.615007 -0.061080
v -0.185983 0.615007 -0.085136
v -0.194807 0.615007 -0.106557
v -0.205757 0.615007 -0.125366
v -0.218654 0.615007 -0.141589
v -0.233323 0.615007 -0.155249
v -0.249585 0.615007 -0.166371
v -0.267264 0.615007 -0.174980
v -0.286182 0.615007 -0.181098
v -0.306163 0.615007 -0.184752
v -0.327029 0.615007 -0.185964
v -0.339520 0.615007 -0.185447
v -0.351955 0.615007 -0.183913
v -0.364279 0.615007 -0.181386
v -0.376437 0.615007 -0.177890
v -0.388372 0.615007 -0.173450
v -0.400029 0.615007 -0.168089
v -0.411353 0.615007 -0.161833
v -0.422289 0.615007 -0.154705
v -0.432779 0.615007 -0.146730
v -0.442770 0.615007 -0.137932
v -0.452205 0.615007 -0.128335
v -0.461029 0.615007 -0.117964
v -0.463029 0.615007 -0.117964
v -0.651029 0.615007 -0.409964
v -1.038029 0.615007 -0.409964
v -1.038029 0.615007 0.272036
v -0.642029 0.615007 0.272036
v -0.642029 0.615007 0.184036
v -0.940029 0.615007 0.184036
v -0.940029 0.615007 -0.027964
v -0.661029 0.615007 -0.027964
v -0.661029 0.615007 -0.115964
v -0.940029 0.615007 -0.115964
v -0.940029 0.615007 -0.321964
v -0.651029 0.615007 -0.321964
vt 0.025974 0.000000
vt 0.000000 0.000000
vt 0.012987 0.000000
vt 0.506494 0.000000
vt 0.194805 0.000000
vt 0.168831 0.000000
vt 0.181818 0.000000
vt 0.155844 0.000000
vt 0.142857 0.000000
vt 0.129870 0.000000
vt 0.116883 0.000000
vt 0.207792 0.000000
vt 0.103896 0.000000
vt 0.090909 0.000000
vt 0.077922 0.000000
vt 0.220779 0.000000
vt 0.064935 0.000000
vt 0.051948 0.000000
vt 0.038961 0.000000
vt 0.233766 0.000000
vt 0.961039 0.000000
vt 0.974026 0.000000
vt 0.987013 0.000000
vt 1.000000 0.000000
vt 0.246753 0.000000
vt 0.922078 0.000000
vt 0.935065 0.000000
vt 0.948052 0.000000
vt 0.259740 0.000000
vt 0.883117 0.000000
vt 0.896104 0.000000
vt 0.909091 0.000000
vt 0.272727 0.000000
vt 0.844156 0.000000
vt 0.857143 0.000000
vt 0.870130 0.000000
vt 0.831169 0.000000
vt 0.818182 0.000000
vt 0.285714 0.000000
vt 0.805195 0.000000
vt 0.792208 0.000000
vt 0.519481 0.000000
vt 0.779221 0.000000
vt 0.298701 0.000000
vt 0.766234 0.000000
vt 0.753247 0.000000
vt 0.311688 0.000000
vt 0.740260 0.000000
vt 0.727273 0.000000
vt 0.324675 0.000000
vt 0.714286 0.000000
vt 0.337662 0.000000
vt 0.701299 0.000000
vt 0.688312 0.000000
vt 0.350649 0.000000
vt 0.675325 0.000000
vt 0.662338 0.000000
vt 0.363636 0.000000
vt 0.649351 0.000000
vt 0.376623 0.000000
vt 0.636364 0.000000
vt 0.623377 0.000000
vt 0.389610 0.000000
vt 0.610390 0.000000
vt 0.597403 0.000000
vt 0.402597 0.000000
vt 0.584416 0.000000
vt 0.571429 0.000000
vt 0.558442 0.000000
vt 0.415584 0.000000
vt 0.545455 0.000000
vt 0.532468 0.000000
vt 0.428571 0.000000
vt 0.441558 0.000000
vt 0.454545 0.000000
vt 0.467532 0.000000
vt 0.480519 0.000000
vt 0.493506 0.000000
vt 0.785714 0.000000
vt 0.750000 0.000000
vt 0.767857 0.000000
vt 0.803571 0.000000
vt 0.732143 0.000000
vt 0.821429 0.000000
vt 0.839286 0.000000
vt 0.714286 0.000000
vt 0.857143 0.000000
vt 0.035714 0.000000
vt 0.000000 0.000000
vt 0.017857 0.000000
vt 1.000000 0.000000
vt 0.696429 0.000000
vt 0.875000 0.000000
vt 0.892857 0.000000
vt 0.678571 0.000000
vt 0.910714 0.000000
vt 0.660714 0.000000
vt 0.928571 0.000000
vt 0.946429 0.000000
vt 0.642857 0.000000
vt 0.964286 0.000000
vt 0.982143 0.000000
vt 0.285714 0.000000
vt 0.625000 0.000000
vt 0.071429 0.000000
vt 0.089286 0.000000
vt 0.107143 0.000000
vt 0.125000 0.000000
vt 0.142857 0.000000
vt 0.160714 0.000000
vt 0.178571 0.000000
vt 0.196429 0.000000
vt 0.214286 0.000000
vt 0.232143 0.000000
vt 0.250000 0.000000
vt 0.267857 0.000000
vt 0.303571 0.000000
vt 0.321429 0.000000
vt 0.339286 0.000000
vt 0.357143 0.000000
vt 0.607143 0.000000
vt 0.375000 0.000000
vt 0.392857 0.000000
vt 0.410714 0.000000
vt 0.589286 0.000000
vt 0.428571 0.000000
vt 0.446429 0.000000
vt 0.571429 0.000000
vt 0.464286 0.000000
vt 0.053571 0.000000
vt 0.482143 0.000000
vt 0.553571 0.000000
vt 0.500000 0.000000
vt 0.517857 0.000000
vt 0.535714 0.000000
vt 0.181818 0.000000
vt 0.909091 0.000000
vt 0.090909 0.000000
vt 0.000000 0.000000
vt 1.000000 0.000000
vt 0.818182 0.000000
vt 0.545455 0.000000
vt 0.727273 0.000000
vt 0.636364 0.000000
vt 0.454545 0.000000
vt 0.363636 0.000000
vt 0.272727 0.000000
vn 0.0000 1.0000 0.0000
vn 0.0000 1.0000 0.0002
vn 0.0000 1.0000 0.0001
vn 0.0000 1.0000 -0.0007
usemtl EndColor
s off
f 91/140/11 89/141/11 90/142/11
f 91/140/11 128/143/11 89/141/11
f 104/144/12 102/145/12 103/146/12
f 104/144/11 101/147/11 102/145/11
f 104/144/13 100/148/13 101/147/13
f 104/144/11 99/149/11 100/148/11
f 104/144/11 98/150/11 99/149/11
f 105/151/11 98/150/11 104/144/11
f 105/151/11 97/152/11 98/150/11
f 105/151/11 96/153/11 97/152/11
f 105/151/11 95/154/11 96/153/11
f 106/155/11 95/154/11 105/151/11
f 106/155/11 94/156/11 95/154/11
f 106/155/11 93/157/11 94/156/11
f 106/155/11 92/158/11 93/157/11
f 106/155/11 91/140/11 92/158/11
f 107/159/11 91/140/11 106/155/11
f 107/159/11 163/160/11 91/140/11
f 163/160/11 164/161/11 91/140/11
f 164/161/11 165/162/11 91/140/11
f 165/162/11 166/163/11 91/140/11
f 166/163/11 128/143/11 91/140/11
f 108/164/11 160/165/11 107/159/11
f 160/165/11 161/166/11 107/159/11
f 161/166/11 162/167/11 107/159/11
f 162/167/11 163/160/11 107/159/11
f 109/168/11 157/169/11 108/164/11
f 157/169/11 158/170/11 108/164/11
f 158/170/12 159/171/12 108/164/12
f 159/171/14 160/165/14 108/164/14
f 110/172/11 154/173/11 109/168/11
f 154/173/11 155/174/11 109/168/11
f 155/174/11 156/175/11 109/168/11
f 156/175/11 157/169/11 109/168/11
f 110/172/11 153/176/11 154/173/11
f 110/172/11 152/177/11 153/176/11
f 111/178/11 152/177/11 110/172/11
f 111/178/11 151/179/11 152/177/11
f 111/178/11 150/180/11 151/179/11
f 129/181/11 128/143/11 166/163/11
f 111/178/11 149/182/11 150/180/11
f 112/183/11 149/182/11 111/178/11
f 112/183/11 148/184/11 149/182/11
f 112/183/11 147/185/11 148/184/11
f 113/186/11 147/185/11 112/183/11
f 113/186/11 146/187/11 147/185/11
f 113/186/11 145/188/11 146/187/11
f 114/189/11 145/188/11 113/186/11
f 114/189/11 144/190/11 145/188/11
f 115/191/11 144/190/11 114/189/11
f 115/191/11 143/192/11 144/190/11
f 115/191/11 142/193/11 143/192/11
f 116/194/11 142/193/11 115/191/11
f 116/194/11 141/195/11 142/193/11
f 116/194/11 140/196/11 141/195/11
f 117/197/11 140/196/11 116/194/11
f 117/197/11 139/198/11 140/196/11
f 118/199/11 139/198/11 117/197/11
f 118/199/11 138/200/11 139/198/11
f 118/199/11 137/201/11 138/200/11
f 119/202/11 137/201/11 118/199/11
f 119/202/11 136/203/11 137/201/11
f 119/202/11 135/204/11 136/203/11
f 120/205/11 135/204/11 119/202/11
f 120/205/11 134/206/11 135/204/11
f 120/205/11 133/207/11 134/206/11
f 120/205/11 132/208/11 133/207/11
f 121/209/11 132/208/11 120/205/11
f 121/209/11 131/210/11 132/208/11
f 121/209/11 130/211/11 131/210/11
f 121/209/11 129/181/11 130/211/11
f 121/209/11 128/143/11 129/181/11
f 122/212/11 128/143/11 121/209/11
f 123/213/11 128/143/11 122/212/11
f 124/214/11 128/143/11 123/213/11
f 125/215/11 128/143/11 124/214/11
f 126/216/11 128/143/11 125/215/11
f 127/217/11 128/143/11 126/216/11
f 211/218/13 209/219/13 210/220/13
f 212/221/11 209/219/11 211/218/11
f 212/221/11 208/222/11 209/219/11
f 213/223/11 208/222/11 212/221/11
f 214/224/11 208/222/11 213/223/11
f 214/224/11 207/225/11 208/222/11
f 215/226/11 207/225/11 214/224/11
f 169/227/11 167/228/11 168/229/11
f 169/227/11 223/230/11 167/228/11
f 215/226/11 206/231/11 207/225/11
f 216/232/11 206/231/11 215/226/11
f 217/233/11 206/231/11 216/232/11
f 217/233/11 205/234/11 206/231/11
f 218/235/11 205/234/11 217/233/11
f 218/235/11 204/236/11 205/234/11
f 219/237/11 204/236/11 218/235/11
f 220/238/11 204/236/11 219/237/11
f 220/238/11 203/239/11 204/236/11
f 221/240/11 203/239/11 220/238/11
f 222/241/11 203/239/11 221/240/11
f 222/241/11 183/242/11 203/239/11
f 183/242/11 202/243/11 203/239/11
f 169/227/11 222/241/11 223/230/11
f 169/227/11 171/244/11 222/241/11
f 171/244/11 172/245/11 222/241/11
f 172/245/11 173/246/11 222/241/11
f 173/246/11 174/247/11 222/241/11
f 174/247/11 175/248/11 222/241/11
f 175/248/11 176/249/11 222/241/11
f 176/249/11 177/250/11 222/241/11
f 177/250/11 178/251/11 222/241/11
f 178/251/11 179/252/11 222/241/11
f 179/252/11 180/253/11 222/241/11
f 180/253/11 181/254/11 222/241/11
f 181/254/11 182/255/11 222/241/11
f 182/255/11 183/242/11 222/241/11
f 184/256/11 202/243/11 183/242/11
f 185/257/11 202/243/11 184/256/11
f 186/258/11 202/243/11 185/257/11
f 187/259/11 202/243/11 186/258/11
f 187/259/11 201/260/11 202/243/11
f 188/261/11 201/260/11 187/259/11
f 189/262/11 201/260/11 188/261/11
f 190/263/11 201/260/11 189/262/11
f 190/263/11 200/264/11 201/260/11
f 191/265/11 200/264/11 190/263/11
f 192/266/11 200/264/11 191/265/11
f 192/266/11 199/267/11 200/264/11
f 193/268/11 199/267/11 192/266/11
f 169/227/11 170/269/11 171/244/11
f 194/270/11 199/267/11 193/268/11
f 194/270/11 198/271/11 199/267/11
f 195/272/11 198/271/11 194/270/11
f 196/273/11 198/271/11 195/272/11
f 196/273/11 197/274/11 198/271/11
f 226/275/11 234/276/11 225/277/11
f 234/276/11 224/278/11 225/277/11
f 234/276/11 235/279/11 224/278/11
f 226/275/11 233/280/11 234/276/11
f 226/275/11 230/281/11 233/280/11
f 230/281/11 232/282/11 233/280/11
f 230/281/11 231/283/11 232/282/11
f 226/275/11 229/284/11 230/281/11
f 226/275/11 228/285/11 229/284/11
f 226/275/11 227/286/11 228/285/11
