# Blender 3.1.2
# www.blender.org
mtllib game_board_tile.mtl
o Tile
v -1.815142 0.594997 1.801004
v -1.815142 0.000000 1.801004
v 1.873811 0.594997 1.801004
v 1.873811 0.000000 1.801004
v 1.873811 0.000000 1.918025
v 1.873811 0.594997 1.918025
v 1.873811 0.000000 -1.875598
v 1.873811 0.594997 -1.875598
v -1.815142 0.000000 -1.875598
v -1.815142 0.000000 1.918025
v -1.815142 0.594997 1.918025
v -1.815142 0.594997 -1.875598
v 1.759127 0.000000 1.801004
v 1.759127 0.594997 1.801004
v 1.759127 0.594997 -1.875598
v 1.759127 0.594997 1.918025
v 1.759127 0.000000 1.918025
v 1.759127 0.000000 -1.875598
v 1.873811 0.594997 -1.761019
v 1.873811 0.000000 -1.761019
v -1.815142 0.000000 -1.761019
v -1.815142 0.594997 -1.761019
v 1.759127 0.594997 -1.761019
v 1.759127 0.000000 -1.761019
v -1.719195 0.594997 -1.875598
v -1.719195 0.000000 1.918025
v -1.719195 0.000000 1.801004
v -1.719195 0.594997 1.801004
v -1.719195 0.594997 1.918025
v -1.719195 0.000000 -1.875598
v -1.719195 0.594997 -1.761019
v -1.719195 0.000000 -1.761019
v 1.759127 0.594997 1.801004
v 1.873811 0.594997 1.801004
v 1.873811 0.594997 -1.761019
v 1.873811 0.594997 1.918025
v -1.815142 0.594997 -1.761019
v -1.815142 0.594997 -1.875598
v -1.719195 0.594997 -1.875598
v 1.759127 0.594997 1.918025
v -1.719195 0.594997 1.801004
v 1.873811 0.594997 -1.875598
v 1.759127 0.594997 -1.875598
v -1.719195 0.594997 1.918025
v 1.759127 0.594997 -1.761019
v -1.815142 0.594997 1.801004
v -1.719195 0.594997 -1.761019
v -1.815142 0.594997 1.918025
v -1.815142 0.594997 1.801004
v -1.719195 0.594997 1.801004
v 1.759127 0.594997 1.801004
v 1.759127 0.594997 -1.761019
v -1.719195 0.594997 -1.761019
v -1.719195 0.594997 1.918025
v 1.759127 0.594997 1.801004
v 1.873811 0.594997 1.801004
v 1.873811 0.594997 -1.761019
v 1.873811 0.594997 1.918025
v -1.815142 0.594997 -1.761019
v -1.815142 0.594997 -1.875598
v -1.719195 0.594997 -1.875598
v 1.759127 0.594997 1.918025
v -1.719195 0.594997 1.801004
v 1.873811 0.594997 -1.875598
v 1.759127 0.594997 -1.875598
v -1.719195 0.594997 1.918025
v 1.759127 0.594997 -1.761019
v -1.815142 0.594997 1.801004
v -1.719195 0.594997 -1.761019
v -1.815142 0.684366 1.918025
v -1.815142 0.684366 1.801004
v -1.719195 0.684366 1.801004
v -1.719195 0.684366 1.918025
v 1.759127 0.684366 1.801004
v 1.873811 0.684366 1.801004
v 1.873811 0.684366 -1.761019
v 1.873811 0.684366 1.918025
v -1.815142 0.684366 -1.761019
v -1.815142 0.684366 -1.875598
v -1.719195 0.684366 -1.875598
v 1.759127 0.684366 1.918025
v -1.719195 0.684366 1.801004
v 1.873811 0.684366 -1.875598
v 1.759127 0.684366 -1.875598
v -1.719195 0.684366 1.918025
v 1.759127 0.684366 -1.761019
v -1.815142 0.684366 1.801004
v -1.719195 0.684366 -1.761019
vn -0.0000 -1.0000 -0.0000
vn -0.0000 1.0000 -0.0000
vn 1.0000 -0.0000 -0.0000
vn -0.0000 -0.0000 -1.0000
vn -0.0000 -0.0000 1.0000
vn -1.0000 -0.0000 -0.0000
vt 0.625000 0.007712
vt 0.875000 0.742288
vt 0.375000 0.007712
vt 0.125000 0.742288
vt 0.606463 0.657531
vt 0.625000 0.742288
vt 0.298183 0.657531
vt 0.375000 0.742288
vt 0.375000 0.750000
vt 0.625000 0.750000
vt 0.375000 0.500000
vt 0.625000 0.500000
vt 0.125000 0.500000
vt 0.375000 0.250000
vt 0.375000 1.000000
vt 0.125000 0.750000
vt 0.375000 0.000000
vt 0.625000 0.000000
vt 0.625000 1.000000
vt 0.625000 0.250000
vt 0.367228 0.742288
vt 0.632772 0.742288
vt 0.625000 0.492228
vt 0.625000 0.757772
vt 0.367228 0.750000
vt 0.375000 0.757772
vt 0.375000 0.492228
vt 0.367228 0.500000
vt 0.606463 0.368071
vt 0.625000 0.507551
vt 0.298183 0.368071
vt 0.375000 0.507551
vt 0.375000 0.242449
vt 0.125000 0.507551
vt 0.625000 0.242449
vt 0.632772 0.507551
vt 0.367228 0.507551
vt 0.625000 0.256502
vt 0.131502 0.750000
vt 0.375000 0.993498
vt 0.131502 0.742288
vt 0.868498 0.742288
vt 0.868498 0.750000
vt 0.625000 0.993498
vt 0.375000 0.256502
vt 0.131502 0.500000
vt 0.868498 0.507551
vt 0.131502 0.507551
vt 0.632772 0.742288
vt 0.625000 0.742288
vt 0.625000 0.507551
vt 0.625000 0.750000
vt 0.625000 0.242449
vt 0.625000 0.250000
vt 0.625000 0.256502
vt 0.625000 0.757772
vt 0.868498 0.742288
vt 0.625000 0.500000
vt 0.625000 0.492228
vt 0.868498 0.750000
vt 0.625000 0.993498
vt 0.632772 0.507551
vt 0.625000 0.007712
vt 0.875000 0.742288
vt 0.868498 0.507551
vt 0.625000 1.000000
vt 0.625000 0.000000
vt 0.875000 0.742288
vt 0.625000 0.007712
vt 0.748466 0.750340
vt 0.868498 0.742288
vt 0.501866 0.750340
vt 0.632772 0.742288
vt 0.501866 0.504773
vt 0.632772 0.507551
vt 0.868498 0.507551
vt 0.748466 0.504773
vt 0.625000 0.993498
vt 0.868498 0.750000
vt 0.632772 0.742288
vt 0.625000 0.742288
vt 0.625000 0.507551
vt 0.625000 0.750000
vt 0.625000 0.242449
vt 0.625000 0.250000
vt 0.625000 0.256502
vt 0.625000 0.757772
vt 0.868498 0.742288
vt 0.625000 0.500000
vt 0.625000 0.492228
vt 0.868498 0.750000
vt 0.625000 0.993498
vt 0.632772 0.507551
vt 0.875000 0.742288
vt 0.625000 0.007712
vt 0.868498 0.507551
vt 0.625000 1.000000
vt 0.935215 0.789870
vt 0.625000 0.000000
vt 0.875000 0.742288
vt 0.935215 0.780361
vt 0.625000 0.007712
vt 0.927197 0.780361
vt 0.868498 0.742288
vt 0.625000 0.993498
vt 0.927197 0.789870
vt 0.868498 0.750000
vt 0.636519 0.780361
vt 0.632772 0.742288
vt 0.626935 0.780361
vt 0.625000 0.742288
vt 0.626935 0.490901
vt 0.625000 0.507551
vt 0.626935 0.789870
vt 0.625000 0.750000
vt 0.935215 0.490901
vt 0.625000 0.242449
vt 0.625000 0.250000
vt 0.935215 0.481590
vt 0.927197 0.481590
vt 0.625000 0.256502
vt 0.636519 0.789870
vt 0.625000 0.757772
vt 0.927197 0.780361
vt 0.868498 0.742288
vt 0.626935 0.481590
vt 0.625000 0.500000
vt 0.636519 0.481590
vt 0.625000 0.492228
vt 0.927197 0.789870
vt 0.868498 0.750000
vt 0.625000 0.993498
vt 0.636519 0.490901
vt 0.632772 0.507551
vt 0.875000 0.742288
vt 0.935215 0.780361
vt 0.625000 0.007712
vt 0.927197 0.490901
vt 0.868498 0.507551
s 0
usemtl Inner_Tile
f 52/74/2 53/77/2 50/70/2 51/72/2
usemtl Border
f 32/48/1 21/34/1 9/13/1 30/46/1
f 6/10/2 3/6/2 34/50/2 36/52/2
f 4/8/3 3/6/3 6/10/3 5/9/3
f 30/45/4 9/14/4 12/20/4 25/38/4
f 29/44/5 11/19/5 10/15/5 26/40/5
f 23/36/2 14/22/2 33/49/2 45/62/2
f 21/33/6 22/35/6 12/20/6 9/14/6
f 26/39/1 10/16/1 2/4/1 27/41/1
f 10/17/6 11/18/6 1/1/6 2/3/6
f 20/31/3 19/29/3 3/5/3 4/7/3
f 33/49/2 41/57/2 63/88/2 55/80/2
f 5/9/1 17/25/1 13/21/1 4/8/1
f 6/10/5 16/24/5 17/26/5 5/9/5
f 7/11/4 18/27/4 15/23/4 8/12/4
f 8/12/2 15/23/2 43/59/2 42/58/2
f 20/32/1 24/37/1 18/28/1 7/11/1
f 4/8/1 13/21/1 24/37/1 20/32/1
f 15/23/2 25/38/2 39/55/2 43/59/2
f 7/11/3 8/12/3 19/30/3 20/32/3
f 2/3/6 1/1/6 22/35/6 21/33/6
f 12/20/2 22/35/2 37/53/2 38/54/2
f 27/41/1 2/4/1 21/34/1 32/48/1
f 13/21/1 27/41/1 32/48/1 24/37/1
f 14/22/2 28/42/2 41/57/2 33/49/2
f 28/42/2 31/47/2 47/65/2 41/57/2
f 17/25/1 26/39/1 27/41/1 13/21/1
f 16/24/5 29/44/5 26/40/5 17/26/5
f 18/27/4 30/45/4 25/38/4 15/23/4
f 31/47/2 28/42/2 50/71/2 53/76/2
f 24/37/1 32/48/1 30/46/1 18/28/1
f 28/42/2 14/22/2 51/73/2 50/71/2
f 41/57/2 44/60/2 66/91/2 63/88/2
f 40/56/2 36/52/2 58/83/2 62/87/2
f 37/53/2 46/63/2 68/95/2 59/84/2
f 23/36/2 31/47/2 53/76/2 52/75/2
f 39/55/2 38/54/2 60/85/2 61/86/2
f 35/51/2 42/58/2 64/89/2 57/82/2
f 29/44/2 16/24/2 40/56/2 44/61/2
f 25/38/2 12/20/2 38/54/2 39/55/2
f 28/42/2 29/43/2 44/60/2 41/57/2
f 16/24/2 6/10/2 36/52/2 40/56/2
f 19/30/2 8/12/2 42/58/2 35/51/2
f 1/2/2 28/42/2 41/57/2 46/64/2
f 3/6/2 19/30/2 35/51/2 34/50/2
f 31/47/2 23/36/2 45/62/2 47/65/2
f 22/35/2 1/1/2 46/63/2 37/53/2
f 48/66/5 54/78/5 73/105/5 70/97/5
f 61/86/4 60/85/4 79/118/4 80/121/4
f 57/82/3 64/89/3 83/127/3 76/113/3
f 50/71/4 49/68/4 71/100/4 72/104/4
f 60/85/6 59/84/6 78/117/6 79/118/6
f 67/93/6 55/80/6 74/109/6 86/134/6
f 68/94/5 63/88/5 82/125/5 87/135/5
f 58/83/3 56/81/3 75/111/3 77/115/3
f 41/57/2 47/65/2 69/96/2 63/88/2
f 42/58/2 43/59/2 65/90/2 64/89/2
f 14/22/2 23/36/2 52/75/2 51/73/2
f 47/65/2 45/62/2 67/93/2 69/96/2
f 44/61/2 40/56/2 62/87/2 66/92/2
f 34/50/2 35/51/2 57/82/2 56/81/2
f 43/59/2 39/55/2 61/86/2 65/90/2
f 29/43/2 28/42/2 50/71/2 54/79/2
f 1/1/2 11/18/2 48/67/2 49/69/2
f 28/42/2 1/2/2 49/68/2 50/71/2
f 36/52/2 34/50/2 56/81/2 58/83/2
f 46/64/2 41/57/2 63/88/2 68/94/2
f 45/62/2 33/49/2 55/80/2 67/93/2
f 11/19/2 29/44/2 54/78/2 48/66/2
f 38/54/2 37/53/2 59/84/2 60/85/2
f 72/103/2 71/101/2 70/98/2 73/106/2
f 88/138/2 78/116/2 87/136/2 82/124/2
f 75/110/2 74/108/2 81/122/2 77/114/2
f 76/112/2 86/133/2 74/108/2 75/110/2
f 83/126/2 84/128/2 86/133/2 76/112/2
f 80/120/2 79/119/2 78/116/2 88/138/2
f 84/128/2 80/120/2 88/138/2 86/133/2
f 74/108/2 82/124/2 85/130/2 81/122/2
f 59/84/6 68/95/6 87/137/6 78/117/6
f 62/87/5 58/83/5 77/115/5 81/123/5
f 63/88/6 66/91/6 85/131/6 82/125/6
f 54/79/3 50/71/3 72/104/3 73/107/3
f 55/80/4 63/88/4 82/125/4 74/109/4
f 63/88/3 69/96/3 88/139/3 82/125/3
f 49/69/6 48/67/6 70/99/6 71/102/6
f 64/89/4 65/90/4 84/129/4 83/127/4
f 69/96/5 67/93/5 86/134/5 88/139/5
f 66/92/5 62/87/5 81/123/5 85/132/5
f 56/81/3 57/82/3 76/113/3 75/111/3
f 65/90/4 61/86/4 80/121/4 84/129/4
